HIERARCHY
ROOT Hips
{
	OFFSET 0.00000 0.00000 0.00000
	CHANNELS 6 Xposition Yposition Zposition Zrotation Yrotation Xrotation 
	JOINT LHipJoint
	{
		OFFSET 0 0 0
		CHANNELS 3 Zrotation Yrotation Xrotation
		JOINT LeftHip
		{
			OFFSET 1.57358 -1.76629 0.73362
			CHANNELS 3 Zrotation Yrotation Xrotation
			JOINT LeftKnee
			{
				OFFSET 2.40600 -6.61045 0.00000
				CHANNELS 3 Zrotation Yrotation Xrotation
				JOINT LeftAnkle
				{
					OFFSET 2.66168 -7.31291 0.00000
					CHANNELS 3 Zrotation Yrotation Xrotation
					JOINT LeftToe
					{
						OFFSET 0.20870 -0.57341 2.12506
						CHANNELS 3 Zrotation Yrotation Xrotation
						End Site
						{
							OFFSET 0.00000 -0.00000 1.10557
						}
					}
				}
			}
		}
	}
	JOINT RHipJoint
	{
		OFFSET 0 0 0
		CHANNELS 3 Zrotation Yrotation Xrotation
		JOINT RightHip
		{
			OFFSET -1.49299 -1.76629 0.73362
			CHANNELS 3 Zrotation Yrotation Xrotation
			JOINT RightKnee
			{
				OFFSET -2.43663 -6.69460 0.00000
				CHANNELS 3 Zrotation Yrotation Xrotation
				JOINT RightAnkle
				{
					OFFSET -2.62959 -7.22474 0.00000
					CHANNELS 3 Zrotation Yrotation Xrotation
					JOINT RightToe
					{
						OFFSET -0.25784 -0.70841 2.21862
						CHANNELS 3 Zrotation Yrotation Xrotation
						End Site
						{
							OFFSET -0.00000 -0.00000 1.16452
						}
					}
				}
			}
		}
	}
	JOINT lowerback
	{
		OFFSET 0 0 0
		CHANNELS 3 Zrotation Yrotation Xrotation
		JOINT Chest
		{
			OFFSET -0.00034 2.12399 -0.25450
			CHANNELS 3 Zrotation Yrotation Xrotation
			JOINT Chest2
			{
				OFFSET 0.05594 2.14379 -0.03318
				CHANNELS 3 Zrotation Yrotation Xrotation
				JOINT lowerneck
				{
					OFFSET 0 0 0
					CHANNELS 3 Zrotation Yrotation Xrotation
					JOINT Neck
					{
						OFFSET -0.09835 1.62725 0.24211
						CHANNELS 3 Zrotation Yrotation Xrotation
						JOINT Head
						{
							OFFSET 0.10849 1.66041 -0.22648
							CHANNELS 3 Zrotation Yrotation Xrotation
							End Site
							{
								OFFSET 0.04385 1.68267 -0.10541
							}
						}
					}
				}
				JOINT LeftCollar
				{
					OFFSET 0 0 0
					CHANNELS 3 Zrotation Yrotation Xrotation
					JOINT LeftShoulder
					{
						OFFSET 3.29108 0.79398 -0.68179
CHANNELS 3 Zrotation Xrotation Yrotation
						JOINT LeftElbow
						{
OFFSET 0 -5.153100 -0.000000
CHANNELS 3 Zrotation Xrotation Yrotation
							JOINT LeftWrist
							{
OFFSET 0 -3.751380 -0.000000
CHANNELS 3 Zrotation Xrotation Yrotation
								JOINT lhand
								{
									OFFSET 0 0 0
CHANNELS 3 Zrotation Xrotation Yrotation
									JOINT LFingers
									{
OFFSET 0 -0.529170 0.000000
CHANNELS 3 Zrotation Xrotation Yrotation
										End Site
										{
OFFSET 0 -0.426630 0.000000
										}
									}
								}
								JOINT LThumb
								{
OFFSET 0 0.000000 0.000000
CHANNELS 3 Zrotation Xrotation Yrotation
									End Site
									{
OFFSET 0 -0.433150 0.433150
									}
								}
							}
						}
					}
				}
				JOINT RightCollar
				{
					OFFSET 0 0 0
					CHANNELS 3 Zrotation Yrotation Xrotation
					JOINT RightShoulder
					{
						OFFSET -3.07414 1.06285 -0.44338
CHANNELS 3 Zrotation Xrotation Yrotation
						JOINT RightElbow
						{
OFFSET 0 -5.296130 0.000000
CHANNELS 3 Zrotation Xrotation Yrotation
							JOINT RightWrist
							{
OFFSET 0 -3.761440 -0.000000
CHANNELS 3 Zrotation Xrotation Yrotation
								JOINT rhand
								{
									OFFSET 0 0 0
CHANNELS 3 Zrotation Xrotation Yrotation
									JOINT RFingers
									{
OFFSET 0 -0.747320 0.000000
CHANNELS 3 Zrotation Xrotation Yrotation
										End Site
										{
OFFSET 0 -0.602510 0.000000
										}
									}
								}
								JOINT RThumb
								{
OFFSET 0 0.000000 0.000000
CHANNELS 3 Zrotation Xrotation Yrotation
									End Site
									{
OFFSET 0 -0.611710 0.611710
									}
								}
							}
						}
					}
				}
			}
		}
	}
}
MOTION
Frames: 10
Frame Time: 0.008333333333333333
1.962277 17.473890 1.920187 3.521164 -45.569834 -2.629178 0.000000 0.000000 0.000000 -22.028554 -10.274775 -16.680126 1.661576 8.121046 23.083133 -0.350210 -12.560899 -2.863876 0.054536 -1.017156 -2.805017 0.000000 0.000000 0.000000 21.905365 3.372077 -8.071844 -9.751185 -17.264815 58.649563 -1.252214 3.046449 22.422652 -0.890242 -6.013722 16.824275 -1.016832 2.416939 7.289182 1.307502 3.176857 0.412039 1.588603 1.601408 -3.787738 -9.781834 -2.650263 -15.501747 4.975867 -2.504827 23.029063 3.062825 -1.482316 10.090021 0.000000 0.000000 0.000000 -1.579023 4.125954 -8.350402 10.821951 -18.014740 1.720547 12.763432 20.893576 -25.615290 0.000000 0.000000 0.000000 -7.125000 0.000000 0.000000 -18.144089 55.225279 4.667615 0.000000 0.000000 0.000000 -2.189421 1.822132 13.403464 -17.288785 -27.236875 -4.218685 -13.039389 1.752930 -13.611230 0.000000 0.000000 0.000000 7.125000 0.000000 0.000000 9.833348 16.154901 6.811613
1.893599 17.484839 2.012756 4.186163 -45.753444 -3.196657 0.000000 0.000000 0.000000 -22.635213 -10.237502 -15.817502 1.573347 7.912961 22.450766 -0.359673 -12.408756 -2.408078 0.013579 0.280194 0.770199 0.000000 0.000000 0.000000 21.091322 3.745178 -9.175539 -10.287811 -17.563977 60.439922 -1.406543 2.065249 23.237071 -1.052075 -6.509811 18.275278 -1.405512 2.405383 7.274862 1.107251 3.121489 0.544354 1.608863 1.576888 -3.650001 -9.522198 -2.707374 -15.923787 4.866705 -2.583516 23.137125 2.970190 -1.504816 10.210156 0.000000 0.000000 0.000000 -1.282393 3.803594 -8.953520 10.730143 -17.873445 1.692213 13.004345 20.900531 -25.550989 0.000000 0.000000 0.000000 -7.125000 0.000000 0.000000 -17.866764 55.210629 4.586595 0.000000 0.000000 0.000000 -2.023885 1.681525 13.529611 -17.219233 -27.145856 -4.186910 -13.317187 1.806425 -13.297834 0.000000 0.000000 0.000000 7.125000 0.000000 0.000000 9.646996 16.451346 6.616001
1.824351 17.500046 2.105445 4.637600 -45.990838 -3.627241 0.000000 0.000000 0.000000 -23.104207 -10.089009 -15.241772 1.566415 7.896582 22.401032 -0.351188 -12.503458 -2.739169 0.011143 0.499090 1.371714 0.000000 0.000000 0.000000 20.472472 4.169293 -10.152715 -10.776749 -17.821195 62.050838 -1.476492 1.097366 23.395972 -1.232702 -7.033524 19.817860 -1.701328 2.358838 7.264438 1.043002 3.032424 0.620651 1.719862 1.535820 -3.573081 -9.481201 -2.703578 -16.012637 4.788127 -2.559191 23.114644 2.937770 -1.497649 10.215755 0.000000 0.000000 0.000000 -1.180080 3.682142 -9.401674 10.697223 -17.822733 1.682087 13.073948 20.899381 -25.598606 0.000000 0.000000 0.000000 -7.125000 0.000000 0.000000 -17.824186 55.269631 4.601276 0.000000 0.000000 0.000000 -2.065634 1.727646 13.827277 -17.192364 -27.110669 -4.174638 -13.443371 1.746914 -13.140405 0.000000 0.000000 0.000000 7.125000 0.000000 0.000000 9.562518 16.601270 6.524158
1.755359 17.523047 2.196973 4.885821 -46.240526 -3.917684 0.000000 0.000000 0.000000 -23.550173 -9.471902 -14.998013 1.648285 8.090514 22.989967 -0.279890 -12.880555 -4.426440 0.265011 -1.066889 -3.096351 0.000000 0.000000 0.000000 20.057422 4.565492 -11.036440 -11.207606 -18.034599 63.453362 -1.446218 0.369406 22.877946 -1.348323 -7.342718 20.738526 -1.930016 2.252359 7.294138 1.122913 2.874552 0.612798 1.946159 1.461965 -3.606410 -9.642670 -2.618259 -15.782711 4.705051 -2.397324 23.002229 2.955655 -1.448289 10.120609 0.000000 0.000000 0.000000 -1.271181 3.785968 -9.727681 10.707952 -17.839235 1.685401 13.002136 20.843502 -25.763173 0.000000 0.000000 0.000000 -7.125000 0.000000 0.000000 -17.989302 55.412908 4.709054 0.000000 0.000000 0.000000 -2.325569 1.990504 14.268951 -17.202522 -27.123981 -4.179239 -13.390513 1.640424 -13.162069 0.000000 0.000000 0.000000 7.125000 0.000000 0.000000 9.598536 16.583058 6.553258
1.684804 17.594489 2.282836 5.330670 -46.335190 -4.293679 0.000000 0.000000 0.000000 -25.028565 -5.835974 -14.902830 1.780224 8.390704 23.908286 0.148984 -13.614057 -10.926337 2.476757 -8.866943 -25.906266 0.000000 0.000000 0.000000 19.555256 4.584646 -11.979608 -11.543664 -18.190055 64.533793 -1.277523 0.758121 21.642945 -1.045101 -6.484452 18.202776 -2.376492 2.129147 7.354634 1.196573 2.676052 0.552597 2.291018 1.373069 -3.716827 -9.792876 -2.495047 -15.477714 4.548337 -2.176859 22.885451 2.952771 -1.379657 10.004497 0.000000 0.000000 0.000000 -1.329533 3.859259 -10.389519 10.661581 -17.767645 1.671202 13.118617 20.557660 -25.762952 0.000000 0.000000 0.000000 -7.125000 0.000000 0.000000 -17.872303 55.435538 4.686941 0.000000 0.000000 0.000000 -2.612003 2.285591 14.510937 -17.206885 -27.129676 -4.181236 -13.331273 1.746773 -13.318118 0.000000 0.000000 0.000000 7.125000 0.000000 0.000000 9.637290 16.429746 6.613089
1.617201 17.620068 2.364613 5.649339 -46.379848 -4.526012 0.000000 0.000000 0.000000 -25.709121 -4.558079 -14.771037 1.872827 8.594911 24.536895 0.318800 -13.624249 -13.059193 3.080569 -10.823311 -31.687403 0.000000 0.000000 0.000000 19.152083 4.570255 -13.089257 -11.921443 -18.355048 65.737227 -1.080958 0.848727 19.933987 -0.895305 -6.026125 16.861567 -2.618911 2.112760 7.449017 1.083603 2.627743 0.508289 2.311090 1.353876 -3.818901 -9.506020 -2.478547 -15.398910 4.347576 -2.188264 22.880040 2.831653 -1.384191 9.982211 0.000000 0.000000 0.000000 -0.989875 3.690123 -11.131447 10.562707 -17.614773 1.641222 13.354979 20.432906 -25.491865 0.000000 0.000000 0.000000 -7.125000 0.000000 0.000000 -17.483531 55.221929 4.490004 0.000000 0.000000 0.000000 -2.423345 2.413005 14.156021 -17.166805 -27.077134 -4.163026 -13.235764 1.970051 -13.499539 0.000000 0.000000 0.000000 7.125000 0.000000 0.000000 9.700507 16.253559 6.695568
1.550677 17.625303 2.446688 5.745414 -46.425606 -4.607925 0.000000 0.000000 0.000000 -25.878123 -4.437789 -14.550253 1.926666 8.711492 24.897057 0.340376 -13.508151 -13.216675 3.006638 -10.697569 -31.275090 0.000000 0.000000 0.000000 18.920998 4.595495 -14.192912 -12.305532 -18.515127 66.952304 -0.880588 0.711960 17.959406 -0.872775 -5.953131 16.649382 -2.649886 2.097341 7.552929 0.947055 2.596764 0.493064 2.186632 1.338720 -3.886039 -9.121257 -2.482701 -15.482565 4.185262 -2.249362 22.966207 2.702178 -1.398633 10.026071 0.000000 0.000000 0.000000 -0.566535 3.420329 -11.576697 10.474435 -17.478224 1.614541 13.439756 20.563162 -25.211769 0.000000 0.000000 0.000000 -7.125000 0.000000 0.000000 -17.242504 54.970173 4.316684 0.000000 0.000000 0.000000 -2.095584 2.450612 13.698703 -17.123643 -27.020526 -4.143394 -13.199887 2.190139 -13.472545 0.000000 0.000000 0.000000 7.125000 0.000000 0.000000 9.725458 16.283317 6.706915
1.484594 17.620980 2.530845 5.577010 -46.491943 -4.537497 0.000000 0.000000 0.000000 -25.656541 -4.967699 -14.187056 1.932332 8.723003 24.933001 0.255984 -13.537258 -12.373235 2.636166 -10.068398 -29.209599 0.000000 0.000000 0.000000 18.892073 4.684660 -15.222961 -12.680391 -18.663378 68.129577 -0.688576 0.396920 15.817189 -0.954736 -6.221919 17.429694 -2.471910 2.028472 7.651974 0.869551 2.514286 0.512679 2.012771 1.293750 -3.904742 -8.812040 -2.464104 -15.682234 4.097602 -2.267332 23.123032 2.618297 -1.391419 10.115521 0.000000 0.000000 0.000000 -0.221540 3.119850 -11.538042 10.429262 -17.408269 1.600971 13.264907 21.003611 -25.065613 0.000000 0.000000 0.000000 -7.125000 0.000000 0.000000 -17.337568 54.796233 4.267575 0.000000 0.000000 0.000000 -1.801949 2.441931 13.394801 -17.102145 -26.992281 -4.133584 -13.290163 2.344007 -13.106697 0.000000 0.000000 0.000000 7.125000 0.000000 0.000000 9.668187 16.646063 6.589271
1.421213 17.609591 2.613824 5.335098 -46.524262 -4.439357 0.000000 0.000000 0.000000 -25.275886 -5.886905 -13.338330 1.784123 8.398703 23.933108 0.056375 -13.781833 -10.305926 1.847714 -8.483065 -24.228992 0.000000 0.000000 0.000000 18.894809 4.682441 -16.339336 -13.050470 -18.799088 69.281007 -0.523653 0.299150 13.736494 -0.899934 -6.045015 16.915400 -2.318598 1.822355 7.694277 0.979524 2.256178 0.542410 2.069274 1.163216 -3.881667 -8.902859 -2.351838 -15.641632 4.035922 -2.074823 23.120369 2.637230 -1.318942 10.093704 0.000000 0.000000 0.000000 -0.268059 2.932370 -11.022935 10.469790 -17.471058 1.613174 13.162181 21.739479 -25.380668 0.000000 0.000000 0.000000 -7.125000 0.000000 0.000000 -17.613944 55.078377 4.461785 0.000000 0.000000 0.000000 -1.913476 2.561075 13.728641 -17.185124 -27.101145 -4.171302 -13.776871 2.321968 -12.226984 0.000000 0.000000 0.000000 7.125000 0.000000 0.000000 9.345218 17.502998 6.186947
1.357254 17.593416 2.696120 5.232490 -46.532180 -4.494772 0.000000 0.000000 0.000000 -25.029751 -6.891725 -12.296660 1.622189 8.024918 22.792701 -0.126616 -13.528139 -7.689971 0.833294 -4.999212 -14.094901 0.000000 0.000000 0.000000 18.798208 4.597712 -17.400283 -13.380214 -18.913868 70.301231 -0.390545 0.183236 11.809513 -0.795753 -5.685736 15.877438 -2.253160 1.608876 7.766082 1.066780 1.978927 0.608163 2.153596 1.023690 -3.838977 -9.003932 -2.254980 -15.720614 3.984076 -1.891833 23.162301 2.660580 -1.250303 10.111643 0.000000 0.000000 0.000000 -0.365167 2.705713 -10.441672 10.505638 -17.526590 1.623957 13.208016 22.344299 -25.581976 0.000000 0.000000 0.000000 -7.125000 0.000000 0.000000 -17.680232 55.280115 4.566544 0.000000 0.000000 0.000000 -2.081376 2.637938 13.316262 -16.979923 -26.830431 -4.078760 -13.546179 3.155635 -13.809424 0.000000 0.000000 0.000000 7.125000 0.000000 0.000000 9.490175 15.922390 6.621082
